<?xml version="1.0" standalone="no"?>
<!DOCTYPE svg PUBLIC "-//W3C//DTD SVG 20010904//EN"
 "http://www.w3.org/TR/2001/REC-SVG-20010904/DTD/svg10.dtd">
<svg version="1.0" xmlns="http://www.w3.org/2000/svg"
 width="938.000000pt" height="938.000000pt" viewBox="0 0 938.000000 938.000000"
 preserveAspectRatio="xMidYMid meet">

<g transform="translate(0.000000,938.000000) scale(0.100000,-0.100000)"
fill="#000000" stroke="none">
<path d="M3916 8935 c4 -8 17 -15 30 -15 17 0 22 4 18 15 -4 8 -17 15 -30 15
-17 0 -22 -4 -18 -15z"/>
<path d="M3839 8896 c16 -19 55 -22 49 -3 -3 6 -17 14 -33 15 -25 3 -27 2 -16
-12z"/>
<path d="M3980 8906 c0 -3 5 -16 11 -30 9 -20 9 -29 -1 -41 -7 -8 -15 -13 -18
-10 -3 2 -20 -5 -39 -16 -18 -12 -53 -23 -76 -25 -23 -2 -60 -8 -82 -13 -22
-5 -62 -15 -90 -21 -27 -6 -57 -17 -65 -24 -20 -17 -118 -56 -140 -56 -30 0
-96 -43 -176 -113 -41 -37 -81 -67 -89 -67 -7 0 -24 -15 -36 -32 -13 -18 -40
-52 -61 -76 -21 -23 -44 -54 -50 -70 -18 -41 -39 -62 -63 -62 -42 0 -85 -58
-85 -115 0 -24 -6 -37 -20 -45 -11 -6 -20 -19 -20 -29 0 -9 -11 -28 -25 -41
-14 -13 -25 -30 -25 -37 0 -7 -4 -22 -10 -33 -5 -11 -14 -29 -20 -40 -6 -11
-10 -26 -10 -34 0 -7 -8 -16 -17 -18 -19 -5 -50 -104 -52 -162 -1 -16 -6 -35
-11 -41 -6 -7 -10 -46 -9 -86 1 -73 -10 -165 -31 -264 -19 -85 -24 -159 -11
-151 6 4 14 25 17 47 4 23 10 37 16 31 17 -17 34 -148 34 -252 -1 -80 2 -108
13 -116 19 -15 31 -132 21 -203 -7 -46 -4 -71 17 -141 14 -47 31 -90 37 -95 7
-6 16 -21 21 -34 4 -13 38 -53 76 -90 63 -61 71 -72 89 -138 11 -40 33 -93 50
-119 16 -27 30 -53 30 -58 0 -6 7 -24 15 -39 16 -31 37 -176 31 -211 -26 -138
-39 -163 -75 -151 -33 10 -105 87 -121 129 -17 44 -47 65 -35 25 15 -50 80
-174 102 -193 13 -11 23 -28 23 -39 0 -18 6 -19 58 -15 31 3 65 9 76 13 15 7
17 5 12 -13 -13 -39 11 -31 54 18 25 28 53 50 64 50 16 0 17 -3 8 -12 -7 -7
-12 -18 -12 -26 0 -8 -17 -31 -37 -51 -21 -20 -56 -58 -78 -84 -23 -27 -49
-47 -61 -47 -31 0 -55 -22 -71 -66 -41 -107 -52 -146 -46 -160 7 -20 27 -12
31 12 15 99 74 194 121 194 11 0 32 5 46 12 14 6 28 9 31 5 7 -7 -29 -60 -78
-112 -26 -28 -36 -48 -35 -67 2 -24 17 -42 17 -20 0 11 80 95 85 90 2 -2 -3
-17 -11 -33 -67 -126 -74 -144 -74 -194 0 -29 -7 -66 -16 -82 -16 -31 -12 -65
6 -54 5 3 10 17 10 31 0 14 4 22 10 19 15 -9 12 -55 -7 -102 -19 -46 -39 -59
-29 -18 5 18 2 25 -7 25 -10 0 -13 8 -9 26 3 19 1 25 -7 20 -6 -4 -11 -16 -11
-27 0 -10 -5 -19 -10 -19 -7 0 -10 -19 -9 -44 2 -25 -2 -50 -8 -58 -6 -7 -15
-29 -20 -48 -7 -26 -21 -43 -58 -67 -27 -18 -74 -57 -104 -87 -171 -166 -505
-326 -683 -326 -48 0 -53 2 -103 55 -47 48 -58 55 -92 55 -21 -1 -49 -7 -63
-15 -14 -8 -33 -14 -43 -15 -9 0 -36 -9 -60 -19 -23 -11 -62 -25 -86 -33 -47
-14 -63 -36 -96 -133 -43 -125 -58 -244 -52 -415 l5 -145 -71 -105 c-38 -58
-78 -114 -88 -125 -9 -11 -39 -56 -66 -101 -26 -44 -74 -120 -106 -167 -54
-81 -117 -212 -117 -244 0 -8 -11 -34 -25 -57 -49 -83 -75 -175 -75 -261 0
-65 -5 -89 -25 -129 -21 -41 -25 -64 -25 -133 0 -75 -3 -89 -32 -140 -29 -52
-33 -67 -36 -158 -3 -85 -8 -109 -33 -160 -16 -34 -33 -93 -40 -135 -6 -41
-19 -99 -30 -128 -10 -29 -19 -73 -19 -98 0 -30 -8 -60 -24 -87 -13 -23 -29
-60 -36 -82 -7 -22 -25 -65 -40 -95 -15 -30 -30 -69 -34 -86 -4 -16 -25 -59
-46 -95 -48 -76 -51 -116 -15 -183 14 -26 25 -55 25 -65 0 -35 -29 -87 -75
-137 l-46 -49 4 -107 c4 -92 2 -114 -14 -146 -11 -21 -26 -79 -35 -128 -8 -49
-17 -97 -20 -106 -5 -17 66 -18 1395 -18 l1400 0 -34 73 c-50 108 -72 180 -94
307 -56 324 -54 607 8 1055 10 77 31 201 45 275 14 74 31 160 37 190 14 75 37
175 53 235 8 28 21 91 29 140 14 79 64 317 87 415 5 19 16 69 25 110 36 163
87 386 95 410 5 14 23 88 40 165 17 77 43 185 57 240 14 55 32 138 39 185 20
121 44 226 59 258 7 15 16 51 20 80 6 47 9 52 27 46 19 -6 19 -5 4 25 -19 37
-60 77 -101 98 -16 9 -35 23 -41 31 -13 18 -103 12 -214 -13 -36 -8 -101 -20
-145 -26 -191 -27 -273 -47 -357 -88 -46 -23 -89 -41 -96 -41 -17 0 -15 51 3
75 29 39 142 161 250 270 173 173 323 332 409 431 43 50 91 99 107 110 16 10
29 24 29 30 0 6 7 17 15 24 9 7 28 35 43 61 30 55 51 61 70 22 11 -26 16 -46
43 -208 29 -171 53 -396 67 -637 7 -114 12 -141 27 -158 16 -17 19 -34 17 -82
-3 -45 1 -65 13 -78 14 -15 14 -22 5 -41 -8 -14 -10 -39 -6 -68 19 -128 27
-223 26 -288 -2 -84 3 -97 30 -83 16 8 17 19 14 77 -12 167 -15 213 -18 288
-1 44 -6 144 -11 223 -9 152 -5 163 36 115 73 -81 327 -308 336 -299 6 6 -35
66 -56 82 -13 10 -13 14 1 28 11 11 18 12 20 4 3 -7 12 -4 26 10 12 12 28 22
36 22 8 0 16 6 19 13 4 9 7 9 18 0 18 -18 26 -16 32 8 4 16 10 19 29 14 13 -4
30 -14 39 -21 22 -20 39 -17 39 5 0 14 10 20 40 25 38 6 55 29 28 38 -9 3 -9
6 0 12 7 4 12 2 12 -3 0 -15 33 -14 48 1 10 10 19 8 42 -5 22 -13 28 -14 25
-4 -3 7 3 22 15 32 22 20 110 38 110 22 0 -5 21 -8 50 -5 41 4 53 2 64 -13 10
-15 24 -18 73 -16 34 1 58 6 55 11 -3 5 2 6 12 3 10 -4 29 -7 43 -7 24 0 24 0
-9 -33 -106 -105 -87 -102 52 6 80 63 90 68 96 53 3 -8 -8 -43 -25 -77 -21
-43 -28 -66 -22 -78 6 -11 1 -35 -15 -73 -30 -73 -36 -141 -11 -146 11 -2 17
3 17 16 0 11 6 32 14 47 8 15 18 51 21 79 4 28 12 60 18 70 5 11 22 55 37 98
21 59 24 78 14 78 -15 0 -18 12 -7 23 3 4 12 2 20 -4 9 -8 13 -8 13 0 0 6 13
39 28 73 16 35 34 83 40 108 6 25 14 56 18 70 10 37 30 540 22 585 -2 14 3 21
20 23 26 4 27 10 6 40 -14 20 -14 25 0 54 12 23 13 34 5 39 -8 5 -10 23 -6 53
5 35 3 46 -7 46 -20 0 -36 24 -27 38 9 14 -22 83 -45 103 -8 6 -14 10 -15 8 0
-2 -2 -42 -4 -89 -2 -47 -8 -98 -13 -115 -9 -30 -8 -68 4 -117 3 -15 3 -36 -2
-45 -4 -10 -8 -39 -9 -65 0 -31 -6 -52 -17 -60 -8 -7 -19 -30 -22 -51 -8 -41
-24 -45 -37 -9 -6 16 -5 22 6 22 9 0 15 14 17 43 4 51 -26 86 -75 90 -21 2
-32 8 -32 18 0 9 -6 23 -12 30 -14 18 5 103 38 170 4 9 3 21 -2 26 -7 7 0 27
20 59 17 26 31 56 31 66 0 20 4 22 -68 -40 -15 -12 -51 -36 -79 -52 -29 -17
-53 -35 -53 -40 0 -6 -16 -10 -36 -10 -26 0 -46 -9 -77 -35 -22 -19 -49 -35
-58 -35 -10 0 -21 -4 -24 -10 -4 -6 -16 -4 -31 6 -22 15 -27 15 -56 1 -53 -25
-80 -29 -143 -18 -36 5 -64 6 -69 0 -6 -5 -16 -9 -24 -9 -7 0 -20 -7 -29 -15
-14 -14 -16 -14 -27 1 -9 12 -17 14 -32 7 -10 -5 -32 -10 -49 -12 -57 -4 -70
-6 -76 -15 -4 -4 -46 -9 -95 -11 l-89 -3 -38 39 c-21 21 -44 39 -51 39 -8 0
-19 7 -26 15 -7 8 -19 15 -26 15 -8 0 -14 4 -14 9 0 5 -14 23 -31 40 -17 17
-26 31 -20 31 6 0 11 20 11 48 0 41 5 52 35 81 26 25 35 42 35 66 0 18 8 39
18 48 20 19 52 23 52 7 0 -5 3 -9 8 -9 64 10 118 -24 91 -58 -10 -12 -10 -16
2 -24 8 -5 10 -9 4 -9 -16 0 48 -40 65 -40 8 0 27 -6 41 -14 27 -14 119 -7
171 13 15 5 55 15 90 21 100 18 127 66 58 105 -39 23 -49 54 -26 78 9 9 16 19
16 23 0 15 111 114 136 120 60 15 115 0 168 -48 11 -10 30 -18 43 -18 13 0 23
-5 23 -11 0 -14 52 -7 58 9 2 6 -3 12 -11 12 -9 0 -19 9 -22 21 -4 12 -12 18
-21 15 -19 -7 -28 12 -14 29 8 9 8 15 2 15 -15 0 -20 91 -5 97 23 9 46 135 29
161 -4 7 -12 10 -17 7 -5 -4 -9 1 -9 10 0 8 -10 19 -23 24 -12 5 -29 25 -37
45 -11 28 -19 36 -38 36 -33 0 -88 43 -96 75 -4 14 -13 25 -21 25 -8 0 -15 9
-15 20 0 13 -7 20 -20 20 -12 0 -20 7 -20 16 0 32 -98 114 -137 114 -32 0 -33
-10 -9 -60 12 -25 27 -64 34 -87 9 -29 21 -46 40 -55 25 -12 27 -18 27 -71 0
-31 -3 -57 -7 -57 -5 0 -8 -8 -8 -18 0 -17 13 -30 93 -94 15 -13 29 -30 31
-38 2 -8 6 -23 11 -33 4 -10 4 -21 0 -25 -4 -4 -62 -5 -128 -3 -161 6 -235 5
-277 -4 -33 -6 -31 -4 25 33 55 35 125 115 125 141 0 6 13 25 30 44 51 58 61
114 17 98 -12 -4 -50 -5 -85 -1 -70 7 -117 -8 -125 -40 -4 -15 -11 -17 -48
-10 -23 4 -49 6 -56 3 -7 -3 -13 2 -13 11 0 9 8 16 17 16 9 0 13 3 10 7 -4 3
-22 -2 -41 -12 -29 -16 -40 -17 -70 -8 -31 10 -38 9 -46 -7 -5 -10 -28 -27
-52 -39 -39 -19 -43 -19 -60 -4 -29 26 -33 75 -9 121 11 22 25 43 29 46 5 3 7
19 4 35 -4 27 -7 30 -31 25 -44 -11 -98 -71 -112 -125 -7 -27 -15 -46 -18 -44
-8 8 -39 -68 -34 -82 3 -7 0 -13 -7 -13 -7 0 -10 -7 -6 -15 3 -8 0 -26 -6 -40
-9 -20 -8 -29 4 -42 20 -25 21 -69 2 -133 -9 -30 -18 -61 -20 -67 -2 -7 -10
-10 -19 -7 -16 6 -18 -2 -16 -46 1 -14 -7 -37 -18 -51 -13 -17 -17 -30 -11
-40 7 -10 3 -16 -13 -21 l-22 -6 23 -1 c12 -1 25 6 28 14 7 17 34 21 34 5 0
-5 11 -10 25 -10 14 0 25 -6 25 -12 0 -7 7 -25 14 -40 8 -16 12 -28 8 -28 -4
0 -8 -12 -8 -27 -3 -47 -10 -68 -25 -68 -8 0 -27 -15 -44 -32 -34 -37 -61 -42
-70 -13 -7 22 -20 26 -30 10 -4 -6 -11 -8 -16 -5 -5 4 -9 1 -9 -4 0 -15 -20
-10 -42 10 -10 9 -16 23 -13 31 8 20 -41 46 -57 30 -9 -9 -8 -12 7 -12 16 0
17 -2 3 -17 -9 -10 -19 -28 -22 -41 -7 -20 -5 -21 17 -13 21 8 28 5 47 -22
l23 -31 -30 22 c-34 24 -43 27 -43 12 0 -13 42 -55 55 -55 6 0 10 -4 10 -10 0
-5 4 -16 9 -23 4 -7 5 -16 1 -20 -14 -15 -165 172 -197 244 -7 16 -15 31 -18
34 -6 5 -34 69 -35 80 -1 3 -8 21 -17 41 -18 42 -49 136 -73 224 -9 33 -23 72
-32 88 -21 40 -61 160 -83 252 -19 78 -41 283 -34 314 4 18 25 198 28 251 2
19 11 50 21 69 15 28 15 35 4 42 -11 7 -9 10 8 15 12 3 24 17 28 32 4 15 12
30 18 34 9 6 9 8 0 8 -18 0 -16 27 2 34 9 3 23 22 31 41 8 19 19 35 25 35 7 0
9 11 6 30 -4 18 -2 30 4 30 5 0 16 15 24 34 8 19 19 37 25 41 5 3 10 20 10 37
0 44 21 98 39 98 8 0 12 3 8 6 -9 9 20 61 38 67 25 10 17 27 -20 43 l-35 14 6
83 c3 45 7 100 9 121 1 22 9 44 18 50 16 12 27 19 97 66 25 16 59 30 75 30 17
0 64 18 105 39 77 40 108 77 110 128 0 12 9 27 19 33 26 13 29 13 34 -7 4 -14
5 -12 6 5 1 14 10 26 25 31 13 5 26 17 30 26 4 11 13 14 25 10 25 -8 51 4 44
20 -2 8 -1 20 3 27 5 7 7 22 6 34 -3 21 22 52 31 37 2 -4 7 -21 11 -37 6 -23
11 -27 31 -23 17 3 25 0 25 -9 0 -8 4 -14 9 -14 5 0 13 -10 17 -22 8 -26 33
-47 49 -42 5 1 24 -18 40 -44 17 -27 45 -54 65 -64 50 -25 70 -41 70 -55 0 -7
14 -19 30 -28 17 -9 30 -21 30 -28 1 -20 67 -87 87 -87 24 0 137 -103 131
-121 -7 -20 23 -48 59 -55 18 -3 36 -10 38 -15 3 -4 12 -6 20 -3 8 4 28 -7 46
-25 17 -17 34 -29 38 -27 4 3 14 -3 23 -12 25 -28 55 -50 78 -57 29 -9 160
-150 160 -172 0 -7 4 -13 9 -13 5 0 34 -37 65 -82 30 -46 73 -103 95 -128 81
-89 149 -292 166 -493 3 -34 8 -84 10 -112 3 -27 8 -79 10 -115 3 -36 9 -81
15 -100 5 -19 10 -121 10 -227 1 -189 1 -193 -30 -285 -17 -51 -49 -124 -72
-163 -46 -80 -43 -93 19 -113 23 -7 59 -29 81 -48 22 -19 45 -34 51 -34 6 0
11 -4 11 -9 0 -15 38 -23 58 -12 10 5 24 6 32 1 12 -7 12 -13 0 -37 -8 -15
-16 -31 -18 -35 -9 -18 23 -5 78 33 65 44 74 59 35 59 -41 0 -99 35 -140 85
-28 35 -35 49 -25 55 10 6 9 13 -4 31 -9 13 -16 30 -16 39 0 9 -9 23 -20 32
-39 34 -39 105 0 93 16 -5 20 -2 20 15 0 12 -7 28 -15 36 -17 17 -20 34 -6 34
5 0 12 -8 16 -19 3 -10 14 -26 25 -36 25 -22 25 -35 3 -35 -16 -1 -16 -3 3
-18 13 -11 21 -30 22 -51 0 -18 3 -35 6 -38 3 -3 21 11 41 30 l37 36 -5 113
c-3 62 -8 129 -11 148 -3 19 -6 57 -7 84 -1 44 -4 50 -29 59 -16 6 -31 18 -34
26 -22 58 -24 74 -14 102 12 36 21 37 36 4 13 -29 20 -30 46 -10 15 11 19 26
18 67 -3 200 -2 225 11 258 29 68 23 222 -9 234 -8 3 -14 10 -14 16 0 6 5 8
10 5 18 -11 10 14 -8 27 -10 7 -21 21 -25 31 -7 18 -34 33 -43 24 -3 -3 -1
-14 5 -25 9 -17 8 -19 -9 -15 -20 5 -27 43 -14 77 8 20 44 21 70 1 10 -8 28
-15 38 -15 11 0 38 -17 60 -39 156 -149 184 -168 201 -141 3 6 2 10 -4 10 -5
0 -13 9 -16 20 -3 11 -13 20 -20 20 -8 0 -20 8 -27 18 -14 18 -74 65 -123 97
-51 32 -57 41 -39 59 15 16 12 19 -16 17 -8 -1 -33 8 -55 19 -21 11 -44 20
-51 20 -18 0 -37 28 -28 42 9 13 7 140 -2 171 -7 22 14 22 38 0 16 -15 21 -15
28 -3 7 11 11 8 19 -13 6 -15 24 -36 41 -45 16 -9 30 -20 30 -24 0 -24 66 -75
153 -119 56 -28 120 -64 141 -80 22 -16 45 -29 50 -29 6 0 19 -7 28 -14 16
-11 16 -22 8 -95 -8 -67 -7 -86 4 -97 8 -7 12 -23 9 -34 -3 -11 -1 -20 5 -20
15 0 35 125 28 175 -4 25 -14 52 -22 60 -9 8 -16 28 -16 45 -1 40 -23 59 -32
28 -5 -14 -9 -18 -13 -10 -2 6 -12 12 -22 12 -10 0 -35 15 -57 33 -21 18 -61
44 -89 57 -27 13 -73 48 -101 77 -27 29 -58 53 -67 53 -24 0 -21 17 3 23 24 6
26 20 5 40 -32 33 33 37 84 6 33 -20 49 -20 37 0 -4 6 -29 23 -57 38 -30 17
-52 37 -55 51 -4 14 -14 22 -28 23 -60 2 -77 6 -88 21 -7 9 -22 18 -32 20 -11
1 -21 9 -24 17 -3 10 0 12 12 8 23 -9 20 9 -7 30 -35 28 -67 74 -67 96 0 11
-12 49 -26 85 -14 35 -27 92 -30 126 -2 33 -8 70 -13 81 -27 62 -42 107 -57
170 -9 39 -21 74 -25 79 -15 17 -10 26 16 26 14 0 25 5 25 11 0 7 -11 9 -31 5
-39 -8 -62 5 -89 49 -12 19 -27 35 -33 35 -7 0 -41 29 -76 65 -36 36 -68 65
-72 65 -4 0 -49 39 -101 86 -61 57 -112 95 -148 111 -30 13 -63 28 -72 33 -10
6 -29 10 -42 10 -14 0 -28 5 -31 10 -4 6 -10 8 -15 5 -4 -2 -19 4 -33 15 -36
28 -67 38 -158 50 -85 10 -109 21 -109 49 0 28 -20 41 -40 28 -14 -8 -22 -7
-36 4 -18 15 -43 19 -133 22 -34 1 -56 7 -59 15 -3 10 -7 10 -18 1 -20 -17
-35 -7 -48 31 -6 19 -19 36 -28 38 -10 2 -18 1 -18 -2z m110 -588 c0 -16 -3
-19 -11 -11 -6 6 -8 16 -5 22 11 17 16 13 16 -11z m370 -394 c0 -20 -5 -18
-35 11 -35 35 -32 51 5 25 17 -12 30 -28 30 -36z m1110 -1286 c18 -57 36 -108
41 -114 12 -15 -9 -74 -26 -74 -19 0 -30 45 -40 160 -4 36 -12 74 -19 85 -13
20 -11 45 3 45 5 0 23 -46 41 -102z m-2712 -58 c1 -30 -2 -73 -6 -94 -6 -36
-8 -38 -22 -21 -18 22 -17 173 1 207 l13 23 7 -30 c4 -16 7 -55 7 -85z m49
-115 c-2 -66 -9 -79 -25 -47 -15 27 -1 112 18 112 6 0 9 -26 7 -65z m2666
-106 c-6 -6 -29 -13 -52 -16 -58 -8 -57 21 2 47 42 19 42 19 51 -1 6 -12 6
-23 -1 -30z m54 -41 c-3 -8 -6 -5 -6 6 -1 11 2 17 5 13 3 -3 4 -12 1 -19z
m-107 -23 c0 -8 -7 -15 -15 -15 -8 0 -15 7 -15 15 0 8 7 15 15 15 8 0 15 -7
15 -15z m-10 -85 c0 -5 -4 -10 -10 -10 -5 0 -10 5 -10 10 0 6 5 10 10 10 6 0
10 -4 10 -10z m40 -110 c0 -5 -2 -10 -4 -10 -3 0 -8 5 -11 10 -3 6 -1 10 4 10
6 0 11 -4 11 -10z m37 -62 c-3 -8 -6 -5 -6 6 -1 11 2 17 5 13 3 -3 4 -12 1
-19z m10 -44 c-9 -9 -28 6 -21 18 4 6 10 6 17 -1 6 -6 8 -13 4 -17z m-47 2 c0
-8 -4 -18 -10 -21 -5 -3 -10 -4 -10 -1 0 2 -3 11 -6 20 -4 11 -1 16 10 16 9 0
16 -6 16 -14z m-1332 -61 c-69 -56 -189 -135 -205 -135 -6 0 -13 21 -17 46 -7
55 16 104 49 104 15 0 17 -2 6 -9 -23 -15 3 -20 60 -12 30 4 66 15 79 24 14 9
35 17 48 17 21 0 19 -4 -20 -35z m1394 -57 c-9 -9 -12 -7 -12 12 0 19 3 21 12
12 9 -9 9 -15 0 -24z m-2370 -81 c25 -30 38 -58 43 -90 7 -46 7 -47 -19 -47
-25 0 -27 3 -25 38 1 22 -6 53 -19 77 -19 35 -28 65 -19 65 1 0 19 -20 39 -43z
m1355 37 c-3 -3 -12 -4 -19 -1 -8 3 -5 6 6 6 11 1 17 -2 13 -5z m-42 -14 c-3
-5 -10 -10 -16 -10 -5 0 -9 5 -9 10 0 6 7 10 16 10 8 0 12 -4 9 -10z m-1419
-257 c-10 -10 -19 5 -10 18 6 11 8 11 12 0 2 -7 1 -15 -2 -18z m2394 -95 c0
-12 -1 -19 -3 -17 -1 2 -9 12 -16 22 -12 14 -11 17 3 17 10 0 16 -8 16 -22z
m-1878 -30 c7 -19 -3 -58 -14 -58 -5 0 -7 4 -3 10 8 12 -16 50 -32 50 -17 0
-17 17 0 23 15 5 44 -9 49 -25z m265 -30 c-3 -8 -6 -5 -6 6 -1 11 2 17 5 13 3
-3 4 -12 1 -19z m-227 -140 c0 -5 -18 5 -40 22 -22 17 -40 36 -40 42 0 5 18
-5 40 -22 22 -17 40 -36 40 -42z m1550 -198 c0 -5 -5 -10 -11 -10 -5 0 -7 5
-4 10 3 6 8 10 11 10 2 0 4 -4 4 -10z m-2060 -57 c0 -5 -5 -15 -10 -23 -8 -12
-10 -11 -10 8 0 12 5 22 10 22 6 0 10 -3 10 -7z m2024 -99 c12 -4 12 -9 3 -18
-8 -9 -15 -10 -23 -2 -7 6 -10 14 -7 19 5 9 7 9 27 1z m-2104 -215 c0 -8 -46
-39 -59 -39 -5 0 -7 10 -4 23 10 46 10 46 37 34 14 -7 26 -15 26 -18z m919
-118 c-6 -2 -15 3 -20 10 -15 24 -10 29 11 11 12 -10 16 -18 9 -21z m969 -7
c-4 -3 -16 -3 -28 1 -17 5 -19 9 -9 21 11 13 14 13 28 0 8 -9 12 -18 9 -22z
m-52 -10 c31 -21 16 -44 -28 -44 -22 0 -29 -4 -25 -14 4 -10 1 -13 -8 -10 -20
8 -27 34 -10 40 8 4 15 12 15 19 0 11 9 19 28 24 1 1 14 -6 28 -15z m-921 -4
c3 -5 1 -10 -4 -10 -6 0 -11 5 -11 10 0 6 2 10 4 10 3 0 8 -4 11 -10z m752
-56 c-3 -3 -12 -4 -19 -1 -8 3 -5 6 6 6 11 1 17 -2 13 -5z"/>
<path d="M3710 7660 c0 -5 4 -10 9 -10 6 0 13 5 16 10 3 6 -1 10 -9 10 -9 0
-16 -4 -16 -10z"/>
<path d="M3677 7544 c-3 -3 -3 -12 0 -19 4 -11 10 -11 29 -3 18 8 21 14 12 20
-15 9 -32 10 -41 2z"/>
<path d="M5605 7500 c3 -5 11 -10 16 -10 6 0 7 5 4 10 -3 6 -11 10 -16 10 -6
0 -7 -4 -4 -10z"/>
<path d="M4599 7436 c-3 -3 -40 -12 -84 -21 -83 -17 -168 -49 -196 -72 -8 -7
-27 -13 -41 -13 -35 0 -83 -26 -102 -55 -20 -30 -20 -35 -1 -35 8 0 15 -7 15
-15 0 -8 -7 -15 -15 -15 -14 0 -19 -11 -16 -37 1 -7 -5 -13 -14 -13 -8 0 -15
-7 -15 -15 0 -10 10 -15 30 -15 17 0 30 5 30 10 0 6 7 10 15 10 27 0 49 -129
26 -153 -10 -10 8 -110 21 -118 5 -4 15 -16 21 -29 12 -22 36 -38 90 -59 19
-8 27 -18 27 -36 0 -22 3 -24 19 -15 23 12 71 13 71 2 0 -11 92 -33 164 -39
49 -4 69 -1 108 19 36 17 47 28 44 41 -2 9 0 15 4 12 14 -9 81 67 86 99 3 17
11 41 17 54 12 24 68 55 102 56 14 1 20 8 20 23 0 11 3 24 7 28 9 9 -40 105
-58 112 -8 3 -14 10 -14 17 0 11 -63 56 -79 56 -5 0 -11 5 -13 11 -2 5 -15 12
-29 13 -23 3 -109 74 -109 90 0 9 68 0 108 -14 18 -7 62 -32 99 -57 73 -49
101 -47 64 5 -24 35 -78 82 -92 82 -5 0 -22 9 -38 21 -32 23 -92 41 -135 39
-16 0 -39 6 -52 15 -22 14 -75 21 -85 11z m270 -342 c54 -35 41 -41 -30 -14
-30 11 -68 20 -86 20 -41 0 -65 9 -57 22 4 6 32 9 69 6 45 -4 73 -13 104 -34z
m-31 -109 c2 -14 -7 -26 -28 -39 -36 -21 -35 -21 -43 20 -7 39 -1 46 38 42 21
-2 31 -9 33 -23z"/>
<path d="M5768 7403 c7 -3 16 -2 19 1 4 3 -2 6 -13 5 -11 0 -14 -3 -6 -6z"/>
<path d="M5955 7310 c10 -11 20 -18 23 -15 7 6 -18 35 -31 35 -5 0 -2 -9 8
-20z"/>
<path d="M5879 7260 c13 -11 28 -20 33 -20 6 0 -1 9 -15 20 -33 26 -49 26 -18
0z"/>
<path d="M5996 7267 c3 -10 9 -15 12 -12 3 3 0 11 -7 18 -10 9 -11 8 -5 -6z"/>
<path d="M5750 7260 c0 -11 50 -34 57 -26 3 2 -9 12 -26 21 -18 9 -31 11 -31
5z"/>
<path d="M3868 7223 c7 -3 16 -2 19 1 4 3 -2 6 -13 5 -11 0 -14 -3 -6 -6z"/>
<path d="M5925 7222 c17 -12 46 -72 40 -81 -3 -5 0 -13 6 -17 6 -3 15 0 20 7
6 11 9 8 9 -8 0 -12 5 -25 10 -28 13 -8 13 8 -2 42 -14 33 -67 93 -82 93 -7 0
-8 -3 -1 -8z"/>
<path d="M3934 7206 c-12 -9 -27 -11 -45 -6 -15 5 -30 5 -34 2 -3 -3 -27 -7
-53 -9 -103 -5 -365 -73 -416 -107 -35 -22 -132 -147 -154 -196 -27 -63 -35
-139 -21 -209 9 -44 10 -72 2 -106 l-11 -46 42 2 c22 1 49 -2 58 -5 9 -4 25
-3 37 3 36 20 69 13 87 -18 14 -23 27 -31 63 -36 25 -4 59 -14 74 -22 69 -35
171 -20 224 34 17 18 38 33 46 33 8 0 29 13 47 30 17 16 35 29 38 29 21 -3 32
3 32 16 0 9 7 15 17 13 19 -4 67 71 83 132 6 22 11 89 11 148 -1 136 1 157 17
158 6 1 14 2 17 3 3 0 -4 11 -15 23 -11 13 -23 32 -26 45 -3 12 -12 24 -20 27
-8 3 -14 15 -14 26 0 11 -8 23 -17 26 -10 3 -25 9 -34 14 -11 6 -23 4 -35 -4z
m-365 -533 c26 -32 22 -37 -24 -29 -36 7 -44 23 -23 44 17 17 24 15 47 -15z"/>
<path d="M2643 7100 c0 -25 2 -35 4 -22 2 12 2 32 0 45 -2 12 -4 2 -4 -23z"/>
<path d="M5575 7110 c-3 -5 -1 -10 4 -10 6 0 11 5 11 10 0 6 -2 10 -4 10 -3 0
-8 -4 -11 -10z"/>
<path d="M2621 6994 c0 -11 3 -14 6 -6 3 7 2 16 -1 19 -3 4 -6 -2 -5 -13z"/>
<path d="M5740 6990 c20 -13 33 -13 25 0 -3 6 -14 10 -23 10 -15 0 -15 -2 -2
-10z"/>
<path d="M5915 6729 c4 -13 14 -29 22 -37 8 -8 12 -20 10 -27 -3 -6 -1 -18 4
-26 6 -10 8 -3 8 21 -1 53 -13 85 -33 88 -15 3 -17 0 -11 -19z"/>
<path d="M6067 6671 c-2 -10 -1 -25 4 -32 6 -10 9 -4 9 19 0 36 -5 42 -13 13z"/>
<path d="M5735 6519 c-4 -6 -5 -13 -2 -16 7 -7 27 6 27 18 0 12 -17 12 -25 -2z"/>
<path d="M5912 6425 c-15 -31 -17 -43 -7 -39 12 5 45 62 45 78 0 19 -19 0 -38
-39z"/>
<path d="M5770 6423 c0 -4 8 -17 16 -28 15 -20 16 -20 12 4 -3 22 -28 44 -28
24z"/>
<path d="M5831 6334 c-16 -45 -3 -62 27 -34 27 26 30 70 4 70 -12 0 -23 -13
-31 -36z"/>
<path d="M5874 6286 c-6 -17 2 -36 17 -36 12 0 12 37 -1 45 -6 3 -13 -1 -16
-9z"/>
<path d="M5758 6130 c-3 -20 0 -30 9 -30 8 0 13 12 13 30 0 17 -4 30 -9 30 -5
0 -11 -13 -13 -30z"/>
<path d="M4543 6138 c-5 -7 -13 -21 -16 -30 -5 -14 -1 -18 18 -18 31 0 40 15
22 40 -11 16 -16 18 -24 8z"/>
<path d="M5940 6068 c0 -24 5 -50 10 -58 7 -11 10 2 10 43 0 31 -4 57 -10 57
-5 0 -10 -19 -10 -42z"/>
<path d="M3596 5845 c4 -8 10 -15 14 -15 4 0 10 7 14 15 4 10 -1 15 -14 15
-13 0 -18 -5 -14 -15z"/>
<path d="M3631 5804 c-1 -11 7 -28 17 -37 23 -21 32 -21 32 -2 0 8 -6 15 -13
15 -8 0 -19 10 -25 23 -10 21 -11 21 -11 1z"/>
<path d="M3080 5738 c0 -32 3 -39 10 -28 13 20 13 70 0 70 -5 0 -10 -19 -10
-42z"/>
<path d="M3067 5673 c-4 -3 -7 -11 -7 -17 0 -6 5 -5 12 2 6 6 9 14 7 17 -3 3
-9 2 -12 -2z"/>
<path d="M3420 5634 c0 -5 7 -18 15 -28 8 -11 15 -16 15 -10 0 5 -7 18 -15 28
-8 11 -15 16 -15 10z"/>
<path d="M3985 5500 c3 -5 8 -10 11 -10 2 0 4 5 4 10 0 6 -5 10 -11 10 -5 0
-7 -4 -4 -10z"/>
<path d="M3070 5400 c0 -5 5 -10 10 -10 6 0 10 5 10 10 0 6 -4 10 -10 10 -5 0
-10 -4 -10 -10z"/>
<path d="M5280 5204 c0 -14 3 -14 15 -4 8 7 15 14 15 16 0 2 -7 4 -15 4 -8 0
-15 -7 -15 -16z"/>
<path d="M5300 5075 c-10 -12 -10 -15 4 -15 9 0 16 7 16 15 0 8 -2 15 -4 15
-2 0 -9 -7 -16 -15z"/>
<path d="M2990 5003 c0 -10 -3 -61 -6 -113 -4 -87 -4 -93 11 -76 8 11 12 28 9
38 -3 11 -1 24 4 31 12 14 3 137 -9 137 -5 0 -9 -8 -9 -17z"/>
<path d="M6170 4765 c8 -10 39 -41 68 -69 67 -64 232 -271 232 -291 0 -2 13
-25 30 -51 23 -36 27 -51 19 -65 -5 -11 -16 -19 -25 -19 -20 0 -84 41 -141 93
-62 54 -106 81 -165 101 -76 26 -233 47 -400 53 -157 6 -157 6 -177 -18 -154
-184 -158 -189 -143 -198 6 -3 14 -27 18 -51 3 -25 16 -99 29 -165 13 -66 29
-167 35 -225 6 -58 18 -142 26 -188 8 -46 27 -174 44 -285 16 -111 38 -251 48
-312 11 -60 27 -153 36 -205 9 -52 25 -142 36 -200 34 -193 49 -289 76 -510
32 -259 52 -409 64 -495 10 -67 20 -170 40 -405 13 -150 4 -615 -14 -725 -8
-49 -18 -108 -21 -130 -11 -67 -55 -251 -81 -334 -8 -25 -14 -51 -14 -58 0
-11 108 -13 595 -13 l595 0 -7 28 c-15 53 -2 310 25 492 6 36 26 108 46 160
39 103 76 239 76 277 0 40 16 25 33 -30 17 -52 69 -119 112 -143 19 -11 19
-12 -12 -47 -77 -88 -43 -190 79 -240 27 -12 39 -23 43 -44 4 -15 15 -53 26
-84 10 -31 19 -66 19 -78 0 -12 12 -34 27 -49 15 -15 29 -38 31 -52 2 -14 7
-29 13 -35 27 -27 -8 -80 -91 -137 -24 -16 19 -17 773 -17 753 -1 797 0 797
17 0 28 -21 93 -46 146 -14 29 -24 68 -24 92 0 42 -16 116 -40 181 -10 27 -8
39 14 87 14 31 26 63 26 70 0 8 -15 23 -34 34 -31 18 -34 25 -38 78 -5 54 -3
62 23 92 16 18 29 40 29 48 0 25 -39 73 -80 99 -31 20 -39 32 -45 66 -4 24
-22 88 -40 144 -35 108 -47 177 -65 369 -12 127 -29 177 -95 285 -25 42 -36
74 -40 117 -4 32 -13 79 -22 102 -11 30 -13 60 -9 95 27 212 18 274 -54 385
-40 60 -50 85 -59 148 -6 41 -18 88 -25 103 -8 15 -26 75 -41 132 -32 129 -56
190 -95 239 -17 21 -41 62 -55 92 -13 29 -33 67 -44 83 -16 23 -21 46 -21 101
0 126 3 121 -177 297 -176 172 -181 181 -144 241 32 52 74 238 69 306 -5 74
-17 87 -119 135 -75 35 -86 38 -182 39 -116 1 -157 -10 -223 -60 -24 -19 -54
-34 -65 -34 -12 0 -57 16 -100 35 -43 20 -115 45 -161 57 -102 25 -141 42
-243 103 -158 95 -194 113 -301 154 -60 23 -118 46 -129 51 -11 5 -42 16 -70
24 -27 8 -59 18 -70 22 -18 7 -19 6 -5 -11z"/>
<path d="M2970 4730 c0 -5 5 -10 10 -10 6 0 10 5 10 10 0 6 -4 10 -10 10 -5 0
-10 -4 -10 -10z"/>
<path d="M5145 3830 c-3 -11 -10 -20 -15 -20 -12 0 -42 -103 -39 -133 2 -12
-7 -40 -18 -62 -21 -40 -33 -87 -38 -143 -1 -15 -10 -45 -19 -66 -10 -22 -20
-55 -23 -74 -5 -29 -3 -33 11 -31 20 4 42 59 56 134 5 28 22 90 39 138 25 71
29 93 20 110 -9 16 -8 23 6 34 31 22 60 133 36 133 -5 0 -13 -9 -16 -20z"/>
<path d="M3919 3514 c-16 -19 -16 -57 1 -214 6 -58 10 -129 10 -158 -1 -74 6
-95 30 -82 17 9 19 18 14 77 -3 36 -12 76 -20 89 -9 13 -11 25 -5 28 12 8 12
94 0 102 -6 3 -8 35 -5 77 7 81 -2 108 -25 81z"/>
<path d="M4976 3267 c-2 -6 -13 -42 -25 -78 -12 -36 -21 -83 -21 -105 0 -23
-13 -64 -30 -99 -20 -40 -30 -74 -30 -106 0 -29 -10 -68 -25 -101 -39 -83 -31
-119 12 -55 25 37 48 119 39 142 -3 8 6 36 20 63 15 29 27 71 31 110 3 34 10
62 14 62 5 0 9 11 9 24 0 14 5 28 10 31 6 3 10 17 10 30 0 13 5 27 10 30 16
10 12 52 -5 59 -9 3 -17 0 -19 -7z"/>
<path d="M3960 3002 c-13 -42 -10 -97 5 -97 13 0 37 86 30 113 -8 33 -23 27
-35 -16z"/>
<path d="M3964 2855 c-4 -8 -3 -25 1 -38 3 -12 10 -69 15 -127 5 -58 15 -136
21 -175 6 -38 12 -98 13 -132 0 -35 6 -63 11 -63 18 -2 29 70 16 105 -6 17
-11 53 -11 79 0 25 -6 62 -14 80 -8 20 -10 39 -5 47 12 19 11 86 -1 94 -5 3
-10 37 -10 76 0 55 -3 69 -15 69 -9 0 -18 -7 -21 -15z"/>
<path d="M4785 2584 c-27 -62 -32 -98 -12 -92 27 9 73 148 48 148 -6 0 -22
-25 -36 -56z"/>
<path d="M4759 2437 c-28 -39 -49 -107 -48 -155 l1 -47 9 39 c5 22 13 44 17
50 15 20 44 105 40 120 -2 10 -7 9 -19 -7z"/>
<path d="M4030 2223 c0 -32 5 -65 10 -73 11 -17 11 -18 12 35 2 69 -2 95 -12
95 -6 0 -10 -26 -10 -57z"/>
<path d="M4685 2220 c-10 -17 -37 -112 -32 -116 10 -10 57 88 57 117 0 12 -17
11 -25 -1z"/>
<path d="M4050 2060 c0 -22 4 -40 9 -40 12 0 22 45 15 64 -11 29 -24 16 -24
-24z"/>
<path d="M4611 1986 c-33 -80 -37 -96 -21 -96 6 0 10 6 10 14 0 7 7 19 15 26
20 16 48 111 36 123 -5 5 -22 -23 -40 -67z"/>
<path d="M4060 1908 c0 -49 5 -77 15 -88 12 -13 13 -26 5 -66 -8 -44 -7 -51
12 -67 19 -16 20 -22 10 -55 -6 -21 -9 -54 -5 -75 6 -37 6 -37 24 -19 14 16
16 31 12 81 -3 33 -10 61 -16 61 -6 0 -7 17 -4 44 4 24 1 59 -5 77 -6 19 -10
55 -9 80 2 50 -12 99 -29 99 -6 0 -10 -29 -10 -72z"/>
<path d="M4562 1814 c-14 -21 -21 -43 -17 -55 4 -11 2 -19 -4 -19 -6 0 -11 -9
-11 -20 0 -34 15 -22 38 29 42 98 39 135 -6 65z"/>
<path d="M4521 1642 c-6 -11 -7 -22 -4 -26 4 -3 -3 -15 -15 -26 -22 -21 -45
-87 -36 -102 11 -18 66 72 78 129 8 36 -8 53 -23 25z"/>
<path d="M4132 1484 c-13 -44 -16 -107 -5 -117 3 -4 12 1 19 11 14 18 16 66 5
117 l-6 30 -13 -41z"/>
<path d="M4457 1433 c-4 -3 -7 -13 -7 -21 0 -9 -6 -23 -14 -31 -21 -23 -37
-121 -20 -121 7 0 18 17 25 38 7 20 18 46 24 57 20 32 27 85 11 85 -7 0 -16
-3 -19 -7z"/>
<path d="M4145 1328 c-8 -42 6 -120 20 -116 14 4 13 124 -2 139 -9 9 -13 4
-18 -23z"/>
<path d="M4181 1154 c-10 -33 -11 -57 -4 -87 8 -34 11 -38 17 -22 4 11 13 30
18 42 11 23 5 90 -9 104 -5 5 -15 -12 -22 -37z"/>
<path d="M4392 1188 c-7 -7 -12 -21 -12 -32 0 -12 -9 -41 -20 -65 -21 -46 -26
-81 -11 -81 14 0 51 50 51 69 0 10 4 21 9 27 5 5 11 28 15 52 7 44 -6 56 -32
30z"/>
<path d="M4207 1008 c-15 -35 -12 -71 8 -120 8 -21 21 -23 28 -5 7 20 0 124
-11 143 -9 16 -12 14 -25 -18z"/>
<path d="M4334 943 c-15 -32 -27 -66 -26 -75 0 -9 -5 -22 -12 -28 -10 -8 -15
-5 -20 12 l-7 23 -12 -25 c-6 -14 -15 -28 -20 -31 -5 -4 -7 -15 -5 -25 2 -14
10 -18 28 -15 57 8 95 65 106 160 3 33 4 61 1 61 -3 0 -18 -26 -33 -57z"/>
<path d="M4298 741 c-16 -15 -28 -32 -28 -36 0 -16 54 -65 71 -65 25 0 32 -15
14 -30 -10 -9 -15 -9 -15 -1 0 6 -9 11 -21 11 -12 0 -37 16 -56 35 -34 34 -35
36 -18 55 15 16 15 22 5 35 -9 11 -16 12 -25 5 -17 -14 -28 -89 -15 -105 6 -7
11 -41 13 -76 2 -61 4 -64 29 -66 15 -1 36 -7 47 -12 25 -14 31 -14 31 2 0 6
16 28 35 47 30 30 35 40 32 76 -1 24 -6 46 -10 50 -4 4 -7 20 -7 36 0 21 -6
31 -24 38 -13 5 -25 13 -27 19 -2 5 -16 -3 -31 -18z"/>
<path d="M4292 460 c-39 -9 -39 -9 -44 -35 -1 -11 -11 -26 -20 -33 -10 -7 -18
-17 -18 -23 0 -15 19 -10 42 11 12 11 18 20 12 20 -20 0 22 20 44 20 17 0 22
6 22 25 0 14 -1 25 -2 24 -2 -1 -18 -5 -36 -9z"/>
<path d="M4280 254 c0 -15 22 -44 31 -39 11 7 -7 45 -21 45 -6 0 -10 -3 -10
-6z"/>
<path d="M4233 97 c-27 -58 -11 -97 38 -97 34 0 39 7 32 43 -4 20 -11 27 -29
27 -17 0 -23 6 -26 27 l-3 28 -12 -28z"/>
</g>
</svg>
